<?xml version="1.0" encoding="UTF-8"?>
<svg id="Layer_2" data-name="Layer 2" xmlns="http://www.w3.org/2000/svg" viewBox="0 0 666.97 115.7">
  <defs>
    <style>
      .cls-1 {
        fill: #231f20;
      }
    </style>
  </defs>
  <g id="Layer_1-2" data-name="Layer 1">
    <path class="cls-1" d="M8,89.99c2.61,10.6,9.82,16.74,19.5,16.74,12,0,19.21-9.52,19.21-27.04V3.26h8.6v77.05c0,21.51-10.46,34.26-27.35,34.26-14.28,0-24.73-8.3-27.97-21.97l6.47-3.07,1.54.46Z"/>
    <path class="cls-1" d="M232.55,3.26v89.87h-.47l-20.58-24.74L157.92,3.31l.02-.05h-9.54l-30.56,73.74c-2.62,5.99-4.93,11.83-7.69,18.13h-.47c-2.61-6.14-5.21-12.14-7.69-18.28L71.28,3.26h-9.35l47.15,110.92h1.86L154.26,11.96l5.93,6.97c6.9,8.14,13.82,16.44,20.58,24.58l58.53,70.67h1.69V3.26h-8.44Z"/>
    <path class="cls-1" d="M571.99,3.26v89.87h-.47l-20.58-24.74L497.33,3.26h-.42v-.38h-85.89s-8.43,0-8.43,0v89.84h-.48l-20.63-24.67-28.6-34.84-24.96-30.33c-5.76-1.92-12.1-2.88-19-2.88-32.06,0-56.05,24.38-56.05,57.3s23.8,57.3,56.24,57.3l.09-8.16c-26.68,0-47.32-21.21-47.32-49.14s20.16-49.24,47.03-49.24c4.41,0,8.54.48,12.38,1.34,5.08,3.93,5.95,5.18,8.92,9.12,6.91,8.16,13.83,16.51,20.54,24.57l58.55,70.74h1.72V10.87h38.57v103.56h8.59V10.87h34.6l6.86,8.07c6.9,8.14,13.82,16.44,20.58,24.58l58.53,70.67h1.69V3.26h-8.44Z"/>
    <path class="cls-1" d="M492.99,114.26v-49.13h7.84v49.13h-7.84Z"/>
    <path class="cls-1" d="M154.26,114.26v-49.13h7.84v49.13h-7.84Z"/>
    <path class="cls-1" d="M324.29,114.42v-49.13h7.84v49.13h-7.84Z"/>
    <path class="cls-1" d="M597.38,58.5c0,28.03,20.06,49.05,46.64,49.05,5.18,0,10.27-.77,15.07-2.21v-40.02h7.87v45.4c-2.5,1.25-5.18,2.21-7.87,2.98-4.71,1.34-9.7,2.02-14.88,2.02-32.25,0-55.95-24.19-55.95-57.2S612.26,1.1,644.7,1.1c5.18,0,9.88.48,14.4,1.53,2.78.48,5.37,1.25,7.87,2.21v9.12c-2.5-1.25-5.08-2.3-7.87-2.97-4.32-1.25-9.12-1.82-14.4-1.82-27.26,0-47.32,21.21-47.32,49.33Z"/>
  </g>
</svg>